<svg width="38" height="38" viewBox="0 0 38 38" fill="none"
  xmlns="http://www.w3.org/2000/svg">
  <path id="e" d="M18.4293 0H19.5707C24.2348 0 28.6534 1.98224 32.8265 5.94671C35.76 9.50614 37.374 12.728 37.6686 15.6124C37.8895 16.9748 38 17.8401 38 18.2083V19.7733C38 22.3017 37.1408 25.229 35.4225 28.5552C32.9186 32.6547 29.353 35.5023 24.7258 37.0979C22.3815 37.6993 20.5465 38 19.2209 38H18.7791C13.9309 38 9.43249 36.0485 5.28392 32.1453C1.7613 28.2422 0 23.707 0 18.5397V18.3188C0 18.147 0.0368217 17.9997 0.110465 17.8769C0.110465 17.791 0.0736434 17.7481 0 17.7481C0.478682 14.0904 1.45446 11.1324 2.92733 8.87403C5.25937 5.0814 8.85562 2.38114 13.7161 0.773256C15.5326 0.257752 17.1037 0 18.4293 0ZM15.8517 12.1328L15.9622 15.6124C15.9622 15.7229 15.8517 15.8395 15.6308 15.9622H13.7161V19.8837H15.6308C15.7413 19.8837 15.8517 20.0003 15.9622 20.2335V29.8992L16.0174 30.5804H20.0126V20.1231C20.0371 19.9635 20.1108 19.8837 20.2335 19.8837H23.4922C23.6395 19.8837 23.8298 18.6502 24.063 16.1831V15.9622H20.2335C20.0862 15.9622 20.0126 15.8886 20.0126 15.7413V13.0349C20.0126 11.8811 20.6877 11.2429 22.0378 11.1202H24.2839V7.75097C24.2839 7.53004 23.4984 7.41957 21.9273 7.41957H21.3566C18.7668 7.41957 17.0791 8.38921 16.2936 10.3285C16.1463 10.7335 15.999 11.3349 15.8517 12.1328Z" fill="#3F448F"/>
</svg>
