<svg width="31" height="25" viewBox="0 0 31 25" fill="none" xmlns="http://www.w3.org/2000/svg">
<path id="&#226;&#128;&#156;" d="M6.82265 25C4.92379 25 3.31197 24.3225 1.98718 22.9675C0.662393 21.5673 0 19.8058 0 17.6829C0 15.1987 0.97151 12.3758 2.91453 9.21409C4.85755 6.05239 7.90456 2.98103 12.0556 0L13.6453 5.89431C11.6581 8.46883 10.3113 10.7046 9.6047 12.6016L13.4466 18.4959C13.4466 19.5348 13.1595 20.5736 12.5855 21.6125C12.0556 22.6061 11.2828 23.4191 10.2671 24.0515C9.25142 24.6838 8.10328 25 6.82265 25ZM24.1774 25C22.2785 25 20.6667 24.3225 19.3419 22.9675C18.0171 21.5673 17.3547 19.8058 17.3547 17.6829C17.3547 15.1987 18.3262 12.3758 20.2692 9.21409C22.2123 6.05239 25.2593 2.98103 29.4103 0L31 5.89431C29.0128 8.46883 27.666 10.7046 26.9594 12.6016L30.8013 18.4959C30.8013 19.5348 30.5142 20.5736 29.9402 21.6125C29.4103 22.6061 28.6375 23.4191 27.6218 24.0515C26.6061 24.6838 25.458 25 24.1774 25Z" fill="white"/>
</svg>
