<svg width="31" height="25" viewBox="0 0 31 25" fill="none" xmlns="http://www.w3.org/2000/svg">
<path id="&#226;&#128;&#156;" d="M24.1774 0C26.0762 0 27.688 0.677505 29.0128 2.03252C30.3376 3.4327 31 5.19422 31 7.31708C31 9.80127 30.0285 12.6242 28.0855 15.7859C26.1424 18.9476 23.0954 22.019 18.9444 25L17.3547 19.1057C19.3419 16.5312 20.6887 14.2954 21.3953 12.3984L17.5534 6.50407C17.5534 5.46522 17.8405 4.42638 18.4145 3.38754C18.9444 2.39386 19.7172 1.58085 20.7329 0.948509C21.7486 0.31617 22.8967 0 24.1774 0ZM6.82265 0C8.72151 0 10.3333 0.677505 11.6581 2.03252C12.9829 3.4327 13.6453 5.19422 13.6453 7.31708C13.6453 9.80127 12.6738 12.6242 10.7308 15.7859C8.78775 18.9476 5.74074 22.019 1.58974 25L0 19.1057C1.98718 16.5312 3.33405 14.2954 4.0406 12.3984L0.198715 6.50407C0.198715 5.46522 0.485754 4.42638 1.05983 3.38754C1.58974 2.39386 2.36253 1.58085 3.3782 0.948509C4.39387 0.31617 5.54202 0 6.82265 0Z" fill="white"/>
</svg>
