<svg width="38" height="38" viewBox="0 0 38 38" fill="none"
  xmlns="http://www.w3.org/2000/svg">
  <path id="r" d="M19.0092 0C25.0134 0 30.0703 2.55431 34.1797 7.66293C36.7266 11.2538 38 15.0112 38 18.9352V19.398C38 23.9883 36.1667 28.3442 32.5002 32.4657C28.4892 36.1552 24.2506 38 19.7844 38H17.9942C13.1096 38 8.57568 35.7418 4.39242 31.2255C1.46414 27.4372 0 23.4577 0 19.2869V18.2689C0 15.9984 0.750526 13.2528 2.25158 10.0321C3.05132 8.30459 4.70002 6.34876 7.19767 4.16464C10.8027 1.38821 14.7398 0 19.0092 0ZM24.6197 10.8281L20.578 9.81003C19.446 12.9813 18.7693 14.7089 18.5478 14.9927C16.3578 14.9927 14.1862 15.5973 12.033 16.8066C11.3932 16.4241 10.9441 16.2328 10.6858 16.2328H10.0029C8.50186 16.64 7.75134 17.3928 7.75134 18.491V18.9352C7.75134 19.5769 8.1266 20.2926 8.87712 21.0823V21.4155C8.87712 25.1914 11.6885 27.5236 17.3113 28.4121C17.5328 28.4861 18.0557 28.5231 18.88 28.5231C23.74 28.5231 27.0374 26.8326 28.7722 23.4515C28.9814 21.9708 29.1352 21.107 29.2336 20.8602C29.9103 20.2432 30.2487 19.5275 30.2487 18.7131C30.2487 17.6025 29.572 16.7758 28.2186 16.2328H27.3142C27.1174 16.2328 26.6314 16.4241 25.8562 16.8066C24.7243 15.9799 22.6265 15.3382 19.5629 14.8816V14.7706C20.4611 12.1052 20.984 10.754 21.1316 10.717H21.2424C23.2725 11.2353 24.4352 11.5746 24.7305 11.735C25.0134 13.006 25.5794 13.6415 26.4284 13.6415H27.2035C28.3354 13.4564 28.9014 12.7407 28.9014 11.4944C28.6676 10.2234 28.0278 9.58792 26.982 9.58792H26.6498C25.9977 9.58792 25.3579 10.0013 24.7305 10.8281H24.6197ZM26.982 10.2543C27.6341 10.2543 28.0094 10.7047 28.1078 11.6055V11.8461C28.1078 12.5124 27.6587 12.8888 26.7606 12.9752C26.2807 12.9752 25.8685 12.6728 25.524 12.0682V11.4944C25.524 10.8034 26.01 10.39 26.982 10.2543ZM10.3351 16.9177C10.9011 17.0041 11.2025 17.1521 11.2394 17.3619C10.3413 18.1146 9.62765 19.0154 9.09859 20.0643H8.98786L8.54492 19.398V18.2689C9.00016 17.3681 9.59689 16.9177 10.3351 16.9177ZM27.6649 16.9177C28.8583 17.2015 29.4551 17.7629 29.4551 18.602V19.2869C29.1721 19.8052 28.9875 20.0643 28.9014 20.0643C28.3231 19.1141 27.6095 18.2133 26.7606 17.3619C26.7606 17.1645 27.062 17.0164 27.6649 16.9177ZM15.2812 18.9352H15.9641C16.6777 18.9352 17.1637 19.4658 17.4221 20.527V20.6381C17.1637 21.6129 16.7146 22.1003 16.0748 22.1003H15.4104C14.7829 22.1003 14.3707 21.6499 14.1739 20.7491V20.416C14.1739 19.8607 14.543 19.3671 15.2812 18.9352ZM22.2574 18.9352H22.8295C23.6539 19.3054 24.0661 19.873 24.0661 20.6381C24.0661 21.3661 23.617 21.8535 22.7188 22.1003H22.1467C21.2485 21.8906 20.7994 21.4402 20.7994 20.7491V20.416C21.0455 19.4288 21.5315 18.9352 22.2574 18.9352ZM15.5211 24.1364H15.6319C16.3947 24.741 17.1821 25.0742 17.9942 25.1359H20.0058C20.4611 25.1359 21.2854 24.8027 22.4789 24.1364H22.5896C22.5896 24.1734 22.6696 24.2845 22.8295 24.4696V24.8027C22.3374 25.395 21.3592 25.8454 19.8951 26.1539H18.2156C17.1821 26.1539 16.1671 25.7035 15.1705 24.8027V24.4696C15.1705 24.3585 15.2874 24.2474 15.5211 24.1364Z" fill="#3F448F"/>
</svg>
