<svg width="16" height="16" viewBox="0 0 16 16" fill="none"
  xmlns="http://www.w3.org/2000/svg">
  <g id="Frame" clip-path="url(#clip0_939_113)">
    <path id="Vector" d="M14.1957 15.1381C14.3214 15.2595 14.4898 15.3267 14.6646 15.3252C14.8394 15.3237 15.0066 15.2536 15.1302 15.13C15.2538 15.0064 15.3239 14.8391 15.3254 14.6643C15.327 14.4895 15.2598 14.3211 15.1383 14.1954L14.1957 15.1381ZM11.3337 6.66675C11.3337 7.90442 10.842 9.09141 9.96682 9.96658C9.09165 10.8417 7.90467 11.3334 6.66699 11.3334V12.6667C8.25829 12.6667 9.78441 12.0346 10.9096 10.9094C12.0349 9.78417 12.667 8.25805 12.667 6.66675H11.3337ZM6.66699 11.3334C5.42932 11.3334 4.24233 10.8417 3.36716 9.96658C2.49199 9.09141 2.00033 7.90442 2.00033 6.66675H0.666992C0.666992 8.25805 1.29913 9.78417 2.42435 10.9094C3.54957 12.0346 5.07569 12.6667 6.66699 12.6667V11.3334ZM2.00033 6.66675C2.00033 5.42907 2.49199 4.24209 3.36716 3.36692C4.24233 2.49175 5.42932 2.00008 6.66699 2.00008V0.666748C5.07569 0.666748 3.54957 1.29889 2.42435 2.42411C1.29913 3.54933 0.666992 5.07545 0.666992 6.66675H2.00033ZM6.66699 2.00008C7.90467 2.00008 9.09165 2.49175 9.96682 3.36692C10.842 4.24209 11.3337 5.42907 11.3337 6.66675H12.667C12.667 5.07545 12.0349 3.54933 10.9096 2.42411C9.78441 1.29889 8.25829 0.666748 6.66699 0.666748V2.00008ZM9.86232 10.8047L14.1957 15.1381L15.1383 14.1954L10.805 9.86208L9.86232 10.8047Z" fill="black"/>
  </g>
  <defs>
    <clipPath id="clip0_939_113">
      <rect width="16" height="16" fill="white"/>
    </clipPath>
  </defs>
</svg>
