<svg width="38" height="38" viewBox="0 0 38 38" fill="none"
  xmlns="http://www.w3.org/2000/svg">
  <path id="l" d="M19.0646 0H19.1753C23.9738 0 28.4523 1.90707 32.611 5.72122C36.2037 9.68302 38 14.1308 38 19.0646C38 25.8562 34.8626 31.3068 28.5877 35.4162C25.5486 37.1387 22.3743 38 19.0646 38C12.3714 38 6.91468 34.9364 2.69451 28.8091C0.898171 25.4256 0 22.1774 0 19.0646C0 12.6544 2.87907 7.34531 8.6372 3.13745C12.033 1.04582 15.5088 0 19.0646 0ZM10.2059 17.9388V19.3968C10.2059 20.5041 10.6181 21.8821 11.4424 23.5308C10.9134 25.6225 10.4643 27.2343 10.0952 28.3662C10.169 28.3662 10.2059 28.4031 10.2059 28.4769L14.9121 27.2404H15.1336C16.9914 27.9909 18.4494 28.3662 19.5075 28.3662H19.9505C22.6696 28.3662 25.0996 27.2035 27.2404 24.8781C28.7292 22.9464 29.4735 20.8548 29.4735 18.6032C29.4735 14.7644 27.5357 11.8116 23.66 9.74454C22.4174 9.3016 21.3285 9.08014 20.3934 9.08014H19.3968C15.4104 9.08014 12.4575 11.3194 10.5381 15.798C10.3167 16.9668 10.2059 17.6804 10.2059 17.9388ZM19.9505 10.6489C23.334 10.6489 25.8378 12.4452 27.4619 16.0379C27.7572 16.9361 27.9048 17.865 27.9048 18.8247C27.9048 18.8985 27.8679 18.9354 27.7941 18.9354C27.7941 19.0215 27.831 19.0646 27.9048 19.0646C27.9048 21.513 26.5268 23.7523 23.7708 25.7824C22.2451 26.4591 20.9348 26.7975 19.8397 26.7975C18.5848 26.7975 17.0898 26.3853 15.355 25.561H15.0228L12.882 26.1146H12.6605L12.439 26.0039C12.8943 24.3183 13.1219 23.3832 13.1219 23.1986C12.2237 21.5869 11.7746 20.3565 11.7746 19.5075V18.1603C11.7746 15.5273 13.3065 13.2449 16.3701 11.3133C17.6005 10.8703 18.7939 10.6489 19.9505 10.6489ZM14.9121 16.4808C14.9121 18.3387 16.4439 20.3196 19.5075 22.4235C20.8117 23.0141 21.6299 23.3094 21.9621 23.3094H22.645C23.9861 22.9895 24.6566 22.4297 24.6566 21.6299V21.0763C24.6197 20.8425 23.8753 20.4672 22.4235 19.9505H22.202L20.9655 21.187C19.4276 20.5841 18.2279 19.5383 17.3667 18.0495V17.9388C17.8957 17.299 18.1603 16.8499 18.1603 16.5915C17.6435 15.0167 17.1944 14.2292 16.813 14.2292H16.4808C15.435 14.4999 14.9121 15.2504 14.9121 16.4808Z" fill="#3F448F"/>
</svg>
