<svg width="38" height="38" viewBox="0 0 38 38" fill="none"
  xmlns="http://www.w3.org/2000/svg">
  <path id="d" d="M18.6767 0H19.4526C23.6892 0 27.778 1.61335 31.719 4.84006C35.9063 9.08896 38 13.5472 38 18.2149V20.0253C38 22.7347 36.9532 25.9183 34.8595 29.5761C32.2732 33.2708 28.7509 35.8201 24.2927 37.2241C22.2236 37.7414 20.4994 38 19.1201 38H19.0092C13.849 38 9.23675 35.9802 5.17258 31.9407C1.72419 27.9997 0 23.6892 0 19.0092C0 14.0091 1.95203 9.4338 5.8561 5.28342C9.92027 1.76114 14.1938 0 18.6767 0ZM8.90423 8.31308L17.1065 19.3233V19.3972L8.83034 28.4123H10.6038L17.9932 20.5056C21.9096 25.7521 23.9047 28.3876 23.9786 28.4123H30.2596L21.5401 16.6631V16.5892C21.848 16.3306 24.4097 13.5719 29.2251 8.31308H27.4516L20.7273 15.4808H20.5795C17.2666 10.9363 15.4685 8.54708 15.1852 8.31308H8.90423ZM11.7861 9.64317H14.5202C23.1411 21.0721 27.4516 26.8605 27.4516 27.0083H24.6437C24.4712 26.8851 20.1361 21.1214 11.6383 9.71706L11.7861 9.64317Z" fill="#3F448F"/>
</svg>
