<svg width="38" height="38" viewBox="0 0 38 38" fill="none" xmlns="http://www.w3.org/2000/svg">
<path d="M19 0C25.1978 0 30.3667 2.69844 34.5068 8.09533C36.8356 11.6193 38 15.2912 38 19.1109C38 23.5344 36.3859 27.6929 33.1576 31.5866C29.0791 35.8622 24.3599 38 19 38C12.9008 38 7.76881 35.3755 3.60409 30.1265C2.29799 28.3768 1.24449 26.0911 0.44358 23.2695L0 20.1274V18.0944C0.135538 15.2604 0.961089 12.4141 2.47665 9.55545C6.66602 3.18515 12.1738 0 19 0ZM18.2053 11.6994C11.9089 11.6994 8.7607 12.1861 8.7607 13.1595C8.28016 13.4553 7.98444 15.476 7.87354 19.2218V19.3327C7.87354 23.5713 8.39721 25.9741 9.44455 26.5409C10.2578 26.9105 12.1307 27.0953 15.0632 27.0953H25.1916C27.5451 27.0953 28.9313 26.5717 29.3502 25.5243C29.7938 24.403 30.0156 22.6041 30.0156 20.1274V18.5564C30.0156 15.0447 29.5658 12.9809 28.6663 12.3648C27.9887 11.9212 24.5016 11.6994 18.2053 11.6994ZM16.7451 16.3016H16.856C20.3923 18.1375 22.2283 19.1479 22.3638 19.3327L17.0963 22.2529H16.7451V16.3016Z" fill="#959595"/>
</svg>
